<svg id="Layer_1" data-name="Layer 1" xmlns="http://www.w3.org/2000/svg" viewBox="0 0 109.11 41.2"><title>right</title><path d="M101.11,11.53l20.44,16.7.91-1.48C111.76,23.18,105.52,13,96.29,7.12c-.79-.5-1.91.35-1.28,1.21a54.89,54.89,0,0,0,11,10.61c4.55,3.53,9.14,7,13.72,10.46l1-1.61q-6.3-3.79-12.52-7.71-2.86-1.78-5.7-3.61c-1.71-1.09-4.45-2.22-5.11-4.29l-1.52,1.1a74.2,74.2,0,0,0,21.6,16.06c1.08.51,1.75-1.12.74-1.68A87.26,87.26,0,0,1,97.06,11.77c-.7-.74-1.77.29-1.51,1.1.54,1.71,1.82,2.61,3.26,3.55,2.42,1.58,4.87,3.12,7.32,4.66q6.86,4.31,13.79,8.45c.91.55,1.82-1,1-1.61-4.35-3.28-8.7-6.55-13-9.87S99.61,11.54,96.45,7.29L95.17,8.5c9.4,5.88,15.66,16.39,26.58,19.85.88.28,1.72-.83.91-1.48L102,10.46a.69.69,0,0,0-.86,1.07Z" transform="translate(-13.88 -6.97)"/><path d="M118.26,26.86q-9.42,6.69-18.38,14c-.7.56-.14,1.8.75,1.42,7-2.94,12-8.9,18.42-12.67l-1.14-1.21a192.31,192.31,0,0,1-18.7,15.49.92.92,0,0,0,1.07,1.5C107,40.7,113.59,35.71,120,30.5l-1.33-1.07c-.83,2.25-3.44,3.66-5.29,5s-3.94,2.89-5.94,4.28q-5.81,4.05-11.85,7.73c-1,.6-.1,1.93.87,1.65a11.63,11.63,0,0,0,5.22-3c.62-.63-.33-1.44-1-1a19.91,19.91,0,0,1-4.89,2.26c.29.55.58,1.1.88,1.65q6.84-4.21,13.41-8.9,3.18-2.27,6.28-4.65c1.61-1.24,3.21-2.36,3.93-4.33.28-.77-.59-1.67-1.33-1.08-6.39,5.2-13,10.11-19.72,14.83l1.07,1.5a188.22,188.22,0,0,0,18.93-15.94c.73-.72-.38-1.65-1.14-1.21-6.34,3.71-11.24,9.5-18,12.52l.75,1.42q8.85-7.45,18.2-14.26a.65.65,0,0,0-.75-1.05Z" transform="translate(-13.88 -6.97)"/><path d="M113.08,27.51Q65.44,25.29,17.7,25c-1,0-1,1.59-.05,1.76,16,2.71,32.28,1.22,48.43.57a193.83,193.83,0,0,1,25.28.43c8,.72,16.12,1.59,24.17.21-.06-.63-.12-1.26-.19-1.89-16,2.94-32-.14-48-.62-17-.5-34,2.09-51,.89l-.06,1.88a777,777,0,0,1,92.45,2.06l.3-1.9q-24.78-1.69-49.59-3Q47,24.66,34.56,24.08c-3.3-.16-6.75-.6-10,.09-2.87.6-6.47,2.52-9.12.54-.16.57-.33,1.13-.5,1.69Q41,25.49,67.1,25.06q12.77-.21,25.52-.29c8.25-.06,16.53.08,24.57,2.05,0-.62,0-1.23,0-1.85a97.67,97.67,0,0,1-27.69,0c0,.6,0,1.2,0,1.8a106,106,0,0,1,31.55,1.93l.29-1.83a91.42,91.42,0,0,0-13.54.41c-1,.11-1.14,1.8-.06,1.86l12.4.62c1.15.05,1.45-1.73.28-1.79L108,27.3,108,29.15a90.61,90.61,0,0,1,13.07-.44.93.93,0,0,0,.29-1.83,107.18,107.18,0,0,0-32-1.9.91.91,0,0,0-.06,1.8,102.61,102.61,0,0,0,28.17,0,.94.94,0,0,0,0-1.85c-7.6-1.92-15.43-2.14-23.26-2.12-8.77,0-17.55.15-26.32.29q-26.6.43-53.18,1.37a1,1,0,0,0-.5,1.69c2,1.48,4.2,1.42,6.57.88,1.53-.35,3-.89,4.56-1.16a27.44,27.44,0,0,1,5.94-.12q12.92.59,25.81,1.27c17.19.91,34.38,2,51.56,3.17,1.21.08,1.53-1.8.3-1.9A778.72,778.72,0,0,0,16,26.3c-1.06,0-1.13,1.8-.06,1.87,17.29,1.22,34.57-1.47,51.86-.85,15.89.57,31.83,3.56,47.7.6,1.19-.22,1-2.1-.19-1.89-8.47,1.47-16.94.41-25.41-.28a194.82,194.82,0,0,0-23.18-.3c-16.28.64-32.67,2.24-48.82-.5,0,.59,0,1.17-.05,1.76q47.52.27,95,2.09c.82,0,1-1.25.2-1.29Z" transform="translate(-13.88 -6.97)"/></svg>