<svg width="2291" height="352" viewBox="0 0 2291 352" fill="none" xmlns="http://www.w3.org/2000/svg">
<path d="M252.636 23.6182V232.865C252.636 255.574 247.917 275.85 238.48 293.693C229.19 311.536 215.107 325.618 196.232 335.94C177.357 346.263 153.616 351.424 125.009 351.424C84.457 351.424 53.4902 340.585 32.1084 318.909C10.874 297.084 0.256836 268.108 0.256836 231.98V23.6182H45.8223V230.211C45.8223 257.491 52.6055 278.062 66.1719 291.923C79.8857 305.785 100.235 312.715 127.221 312.715C145.801 312.715 160.989 309.397 172.786 302.762C184.583 295.979 193.283 286.467 198.887 274.228C204.638 261.841 207.513 247.169 207.513 230.211V23.6182H252.636ZM448.612 98.8232C453.036 98.8232 457.828 99.1182 462.989 99.708C468.15 100.15 472.574 100.74 476.261 101.478L471.616 142.84C468.077 141.956 463.948 141.218 459.229 140.628C454.658 140.039 450.381 139.744 446.4 139.744C436.962 139.744 427.967 141.513 419.415 145.052C410.862 148.591 403.341 153.752 396.853 160.536C390.365 167.171 385.277 175.355 381.591 185.088C377.904 194.673 376.061 205.659 376.061 218.045V347H331.38V103.247H367.213L372.522 147.264H374.513C379.526 138.417 385.572 130.306 392.65 122.933C399.876 115.56 408.134 109.735 417.424 105.459C426.861 101.035 437.257 98.8232 448.612 98.8232ZM566.064 2.82617V87.3213C566.064 97.0537 565.77 106.565 565.18 115.855C564.737 125.145 564.295 132.297 563.853 137.311H566.064C572.7 126.693 582.064 117.698 594.156 110.325C606.395 102.805 622.1 99.0444 641.27 99.0444C670.909 99.0444 694.65 109.662 712.493 130.896C730.336 151.983 739.257 183.318 739.257 224.902C739.257 252.33 735.128 275.481 726.871 294.356C718.76 313.231 707.258 327.461 692.365 337.046C677.619 346.631 660.218 351.424 640.164 351.424C621.141 351.424 605.731 347.958 593.935 341.028C582.138 333.95 572.921 325.544 566.286 315.812H562.968L554.562 347H521.605V2.82617H566.064ZM631.316 135.541C615.243 135.541 602.414 138.711 592.829 145.052C583.391 151.393 576.608 160.978 572.479 173.807C568.35 186.636 566.212 202.783 566.064 222.248V225.566C566.064 254.468 570.783 276.587 580.221 291.923C589.658 307.259 606.764 314.927 631.537 314.927C651.887 314.927 667.296 307.112 677.766 291.481C688.383 275.85 693.692 253.51 693.692 224.46C693.692 194.968 688.457 172.775 677.987 157.881C667.518 142.988 651.96 135.541 631.316 135.541ZM894.534 99.0444C924.616 99.0444 947.104 105.754 961.997 119.173C976.891 132.444 984.337 153.458 984.337 182.212V347H952.486L943.859 311.609H942.09C935.307 320.457 928.229 327.83 920.855 333.729C913.482 339.627 904.93 344.051 895.197 347C885.612 349.949 873.889 351.424 860.028 351.424C845.282 351.424 832.158 348.77 820.656 343.461C809.154 338.152 800.085 330.189 793.449 319.572C786.961 308.808 783.717 295.167 783.717 278.652C783.717 253.878 793.228 235.077 812.25 222.248C831.273 209.419 860.102 202.415 898.736 201.235L940.763 199.465V185.751C940.763 166.729 936.486 153.31 927.934 145.495C919.528 137.679 907.731 133.771 892.543 133.771C880.009 133.771 867.991 135.615 856.489 139.301C844.987 142.84 833.927 147.117 823.31 152.13L809.154 119.836C820.656 113.938 833.706 108.998 848.305 105.017C863.051 101.035 878.46 99.0444 894.534 99.0444ZM940.32 228.663L906.257 230.211C878.092 231.243 858.258 235.962 846.756 244.367C835.402 252.625 829.725 264.201 829.725 279.094C829.725 292.071 833.632 301.582 841.448 307.628C849.263 313.674 859.585 316.697 872.415 316.697C892.174 316.697 908.395 311.167 921.077 300.107C933.906 288.9 940.32 272.385 940.32 250.561V228.663ZM1179.87 98.8232C1208.04 98.8232 1229.64 105.901 1244.68 120.058C1259.87 134.214 1267.46 156.923 1267.46 188.185V347H1223.45V194.157C1223.45 174.692 1219.17 160.093 1210.62 150.361C1202.06 140.481 1188.94 135.541 1171.24 135.541C1146.03 135.541 1128.33 142.988 1118.16 157.881C1108.13 172.775 1103.12 194.378 1103.12 222.69V347H1058.66V103.247H1093.83L1100.24 137.532H1102.67C1107.84 128.979 1114.4 121.827 1122.36 116.076C1130.32 110.325 1139.17 106.049 1148.9 103.247C1158.78 100.298 1169.11 98.8232 1179.87 98.8232ZM1439.77 351.424C1417.36 351.424 1397.74 346.926 1380.93 337.931C1364.12 328.936 1351.07 315.222 1341.78 296.79C1332.64 278.209 1328.07 254.763 1328.07 226.451C1328.07 196.958 1333.01 172.849 1342.89 154.121C1352.77 135.246 1366.41 121.311 1383.81 112.316C1401.36 103.321 1421.41 98.8232 1443.97 98.8232C1457.24 98.8232 1469.63 100.15 1481.13 102.805C1492.78 105.459 1502.52 108.777 1510.33 112.758L1497.06 148.812C1488.8 145.568 1479.88 142.693 1470.29 140.186C1460.86 137.679 1451.86 136.426 1443.31 136.426C1427.68 136.426 1414.7 139.891 1404.38 146.822C1394.21 153.605 1386.54 163.632 1381.38 176.904C1376.21 190.175 1373.63 206.543 1373.63 226.008C1373.63 244.883 1376.14 260.883 1381.15 274.007C1386.32 286.983 1393.84 296.863 1403.72 303.646C1413.74 310.43 1426.2 313.821 1441.1 313.821C1454.22 313.821 1466.02 312.347 1476.49 309.397C1486.96 306.448 1496.62 302.688 1505.46 298.117V337.268C1496.91 341.986 1487.47 345.525 1477.15 347.885C1466.83 350.244 1454.37 351.424 1439.77 351.424ZM1680.21 98.8232C1684.63 98.8232 1689.42 99.1182 1694.58 99.708C1699.74 100.15 1704.17 100.74 1707.85 101.478L1703.21 142.84C1699.67 141.956 1695.54 141.218 1690.82 140.628C1686.25 140.039 1681.98 139.744 1677.99 139.744C1668.56 139.744 1659.56 141.513 1651.01 145.052C1642.46 148.591 1634.94 153.752 1628.45 160.536C1621.96 167.171 1616.87 175.355 1613.18 185.088C1609.5 194.673 1607.65 205.659 1607.65 218.045V347H1562.97V103.247H1598.81L1604.12 147.264H1606.11C1611.12 138.417 1617.17 130.306 1624.24 122.933C1631.47 115.56 1639.73 109.735 1649.02 105.459C1658.46 101.035 1668.85 98.8232 1680.21 98.8232ZM1846.54 99.0444C1876.62 99.0444 1899.11 105.754 1914 119.173C1928.9 132.444 1936.35 153.458 1936.35 182.212V347H1904.49L1895.87 311.609H1894.1C1887.31 320.457 1880.24 327.83 1872.86 333.729C1865.49 339.627 1856.94 344.051 1847.21 347C1837.62 349.949 1825.9 351.424 1812.04 351.424C1797.29 351.424 1784.17 348.77 1772.66 343.461C1761.16 338.152 1752.09 330.189 1745.46 319.572C1738.97 308.808 1735.72 295.167 1735.72 278.652C1735.72 253.878 1745.24 235.077 1764.26 222.248C1783.28 209.419 1812.11 202.415 1850.74 201.235L1892.77 199.465V185.751C1892.77 166.729 1888.49 153.31 1879.94 145.495C1871.54 137.679 1859.74 133.771 1844.55 133.771C1832.02 133.771 1820 135.615 1808.5 139.301C1796.99 142.84 1785.94 147.117 1775.32 152.13L1761.16 119.836C1772.66 113.938 1785.71 108.998 1800.31 105.017C1815.06 101.035 1830.47 99.0444 1846.54 99.0444ZM1892.33 228.663L1858.26 230.211C1830.1 231.243 1810.27 235.962 1798.76 244.367C1787.41 252.625 1781.73 264.201 1781.73 279.094C1781.73 292.071 1785.64 301.582 1793.46 307.628C1801.27 313.674 1811.59 316.697 1824.42 316.697C1844.18 316.697 1860.4 311.167 1873.08 300.107C1885.91 288.9 1892.33 272.385 1892.33 250.561V228.663ZM2125.91 137.532H2065.96V347H2021.5V137.532H1980.14V116.076L2021.5 102.583V85.7729C2021.5 65.2759 2024.67 48.834 2031.02 36.4473C2037.36 23.9131 2046.42 14.7705 2058.22 9.01953C2070.17 3.26855 2084.62 0.393066 2101.58 0.393066C2111.75 0.393066 2121.04 1.27783 2129.45 3.04736C2138 4.81689 2145.37 6.80762 2151.56 9.01953L2140.06 43.083C2135.05 41.4609 2129.45 39.9863 2123.25 38.6592C2117.06 37.1846 2110.5 36.4473 2103.57 36.4473C2090.74 36.4473 2081.23 40.5762 2075.03 48.834C2068.99 57.0918 2065.96 69.5522 2065.96 86.2153V103.247H2125.91V137.532ZM2253.98 315.37C2260.32 315.37 2266.73 314.854 2273.22 313.821C2279.71 312.642 2285.31 311.167 2290.03 309.397V343.461C2285.02 345.673 2278.31 347.516 2269.9 348.991C2261.64 350.613 2253.17 351.424 2244.46 351.424C2231.19 351.424 2219.18 349.138 2208.41 344.567C2197.65 339.996 2189.02 332.18 2182.53 321.121C2176.19 310.061 2173.02 294.725 2173.02 275.113V137.532H2139.18V116.961L2174.57 100.593L2190.27 47.9492H2217.7V103.247H2288.26V137.532H2217.7V274.449C2217.7 288.163 2220.94 298.412 2227.43 305.195C2234.07 311.978 2242.92 315.37 2253.98 315.37Z" fill="black"/>
</svg>
