<svg width="240" height="240" viewBox="0 0 240 240" fill="none" xmlns="http://www.w3.org/2000/svg">
<path d="M128.2 55.8L120 64.02L111.76 55.78C101.679 45.7004 88.007 40.0383 73.7515 40.0392C59.4959 40.0402 45.8245 45.7041 35.745 55.785C25.6654 65.8658 20.0033 79.5379 20.0043 93.7935C20.0052 108.049 25.6691 121.72 35.75 131.8L114.7 210.75C116.106 212.154 118.012 212.943 120 212.943C121.988 212.943 123.894 212.154 125.3 210.75L204.32 131.78C214.389 121.698 220.044 108.032 220.042 93.7829C220.04 79.5342 214.382 65.869 204.31 55.79C199.314 50.7904 193.381 46.8243 186.852 44.1184C180.322 41.4124 173.323 40.0197 166.255 40.0197C159.187 40.0197 152.188 41.4124 145.658 44.1184C139.129 46.8243 133.196 50.8004 128.2 55.8ZM193.68 121.2L120 194.85L46.35 121.2C42.7203 117.609 39.8362 113.335 37.8633 108.626C35.8905 103.916 34.8679 98.8633 34.8544 93.7573C34.8408 88.6512 35.8365 83.5928 37.7842 78.8728C39.7319 74.1529 42.5933 69.8643 46.2038 66.2538C49.8144 62.6433 54.1029 59.7819 58.8229 57.8342C63.5429 55.8864 68.6012 54.8908 73.7073 54.9043C78.8134 54.9179 83.8664 55.9405 88.5759 57.9133C93.2855 59.8861 97.5587 62.7703 101.15 66.4L114.73 79.97C115.437 80.6773 116.277 81.2363 117.203 81.614C118.129 81.9917 119.121 82.1805 120.12 82.1693C121.12 82.1581 122.107 81.9472 123.024 81.5489C123.941 81.1506 124.769 80.5729 125.46 79.85L138.8 66.4C146.153 59.5557 155.874 55.8301 165.918 56.0068C175.962 56.1835 185.546 60.2489 192.654 67.3476C199.761 74.4463 203.839 84.025 204.029 94.0687C204.218 104.112 200.515 113.838 193.68 121.2Z" fill="black"/>
</svg>
