<svg width="270" height="240" viewBox="0 0 270 240" fill="none" xmlns="http://www.w3.org/2000/svg">
<path d="M0 11.25C0 5.01562 5.01562 0 11.25 0H32.5781C42.8906 0 52.0312 6 56.2969 15H248.953C261.281 15 270.281 26.7188 267.047 38.625L247.828 110.016C243.844 124.734 230.484 135 215.25 135H80.0156L82.5469 148.359C83.5781 153.656 88.2187 157.5 93.6094 157.5H228.75C234.984 157.5 240 162.516 240 168.75C240 174.984 234.984 180 228.75 180H93.6094C77.3906 180 63.4688 168.469 60.4688 152.578L36.2813 25.5469C35.9531 23.7656 34.4063 22.5 32.5781 22.5H11.25C5.01562 22.5 0 17.4844 0 11.25ZM60 217.5C60 214.545 60.582 211.619 61.7127 208.89C62.8434 206.16 64.5008 203.679 66.5901 201.59C68.6794 199.501 71.1598 197.843 73.8896 196.713C76.6194 195.582 79.5453 195 82.5 195C85.4547 195 88.3806 195.582 91.1104 196.713C93.8402 197.843 96.3206 199.501 98.4099 201.59C100.499 203.679 102.157 206.16 103.287 208.89C104.418 211.619 105 214.545 105 217.5C105 220.455 104.418 223.381 103.287 226.11C102.157 228.84 100.499 231.321 98.4099 233.41C96.3206 235.499 93.8402 237.157 91.1104 238.287C88.3806 239.418 85.4547 240 82.5 240C79.5453 240 76.6194 239.418 73.8896 238.287C71.1598 237.157 68.6794 235.499 66.5901 233.41C64.5008 231.321 62.8434 228.84 61.7127 226.11C60.582 223.381 60 220.455 60 217.5ZM217.5 195C223.467 195 229.19 197.371 233.41 201.59C237.629 205.81 240 211.533 240 217.5C240 223.467 237.629 229.19 233.41 233.41C229.19 237.629 223.467 240 217.5 240C211.533 240 205.81 237.629 201.59 233.41C197.371 229.19 195 223.467 195 217.5C195 211.533 197.371 205.81 201.59 201.59C205.81 197.371 211.533 195 217.5 195Z" fill="#737373"/>
</svg>
