<svg width="240" height="240" viewBox="0 0 240 240" fill="none" xmlns="http://www.w3.org/2000/svg">
<g clip-path="url(#clip0_16_26)">
<path d="M195 97.5C195 119.016 188.016 138.891 176.25 155.016L235.594 214.406C241.453 220.266 241.453 229.781 235.594 235.641C229.734 241.5 220.219 241.5 214.359 235.641L155.016 176.25C138.891 188.063 119.016 195 97.5 195C43.6406 195 0 151.359 0 97.5C0 43.6406 43.6406 0 97.5 0C151.359 0 195 43.6406 195 97.5ZM97.5 165C106.364 165 115.142 163.254 123.331 159.862C131.521 156.47 138.962 151.498 145.23 145.23C151.498 138.962 156.47 131.521 159.862 123.331C163.254 115.142 165 106.364 165 97.5C165 88.6358 163.254 79.8583 159.862 71.6689C156.47 63.4794 151.498 56.0382 145.23 49.7703C138.962 43.5023 131.521 38.5303 123.331 35.1381C115.142 31.7459 106.364 30 97.5 30C88.6358 30 79.8583 31.7459 71.6689 35.1381C63.4794 38.5303 56.0382 43.5023 49.7703 49.7703C43.5023 56.0382 38.5303 63.4794 35.1381 71.6689C31.7459 79.8583 30 88.6358 30 97.5C30 106.364 31.7459 115.142 35.1381 123.331C38.5303 131.521 43.5023 138.962 49.7703 145.23C56.0382 151.498 63.4794 156.47 71.6689 159.862C79.8583 163.254 88.6358 165 97.5 165Z" fill="#737373"/>
</g>
<defs>
<clipPath id="clip0_16_26">
<rect width="240" height="240" fill="white"/>
</clipPath>
</defs>
</svg>
